<svg width="16" height="18" viewBox="0 0 16 18" fill="none" xmlns="http://www.w3.org/2000/svg">
<path d="M2.16667 17.5C1.70833 17.5 1.31583 17.3369 0.989167 17.0108C0.663055 16.6841 0.5 16.2916 0.5 15.8333V4.16665C0.5 3.70831 0.663055 3.31581 0.989167 2.98915C1.31583 2.66304 1.70833 2.49998 2.16667 2.49998H5.66667C5.86111 1.99998 6.16667 1.5972 6.58333 1.29165C7 0.986091 7.47222 0.833313 8 0.833313C8.52778 0.833313 9 0.986091 9.41667 1.29165C9.83333 1.5972 10.1389 1.99998 10.3333 2.49998H13.8333C14.2917 2.49998 14.6842 2.66304 15.0108 2.98915C15.3369 3.31581 15.5 3.70831 15.5 4.16665V15.8333C15.5 16.2916 15.3369 16.6841 15.0108 17.0108C14.6842 17.3369 14.2917 17.5 13.8333 17.5H2.16667ZM8 3.54165C8.18056 3.54165 8.33 3.48248 8.44833 3.36415C8.56611 3.24637 8.625 3.0972 8.625 2.91665C8.625 2.73609 8.56611 2.58665 8.44833 2.46831C8.33 2.35054 8.18056 2.29165 8 2.29165C7.81944 2.29165 7.67028 2.35054 7.5525 2.46831C7.43417 2.58665 7.375 2.73609 7.375 2.91665C7.375 3.0972 7.43417 3.24637 7.5525 3.36415C7.67028 3.48248 7.81944 3.54165 8 3.54165ZM2.16667 14.875C2.91667 14.1389 3.78833 13.5589 4.78167 13.135C5.77444 12.7116 6.84722 12.5 8 12.5C9.15278 12.5 10.2258 12.7116 11.2192 13.135C12.2119 13.5589 13.0833 14.1389 13.8333 14.875V4.16665H2.16667V14.875ZM8 10.8333C7.19444 10.8333 6.50694 10.5486 5.9375 9.97915C5.36806 9.4097 5.08333 8.7222 5.08333 7.91665C5.08333 7.11109 5.36806 6.42359 5.9375 5.85415C6.50694 5.2847 7.19444 4.99998 8 4.99998C8.80556 4.99998 9.49306 5.2847 10.0625 5.85415C10.6319 6.42359 10.9167 7.11109 10.9167 7.91665C10.9167 8.7222 10.6319 9.4097 10.0625 9.97915C9.49306 10.5486 8.80556 10.8333 8 10.8333Z" fill="#5B5B5B"/>
</svg>
