<svg width="43" height="43" viewBox="0 0 43 43" fill="none" xmlns="http://www.w3.org/2000/svg">
<rect x="1" y="1" width="41" height="41" rx="20.5" fill="#F6F4FF"/>
<path d="M23.8438 24.3711H26.2852C26.207 25.3021 25.9466 26.1322 25.5039 26.8613C25.0612 27.584 24.4395 28.1536 23.6387 28.5703C22.8379 28.987 21.8646 29.1953 20.7188 29.1953C19.8398 29.1953 19.0488 29.0391 18.3457 28.7266C17.6426 28.4076 17.0404 27.9583 16.5391 27.3789C16.0378 26.793 15.6536 26.0866 15.3867 25.2598C15.1263 24.4329 14.9961 23.5085 14.9961 22.4863V21.3047C14.9961 20.2826 15.1296 19.3581 15.3965 18.5312C15.6699 17.7044 16.0605 16.998 16.5684 16.4121C17.0762 15.8197 17.6849 15.3672 18.3945 15.0547C19.1107 14.7422 19.9147 14.5859 20.8066 14.5859C21.9395 14.5859 22.8965 14.7943 23.6777 15.2109C24.459 15.6276 25.0645 16.2038 25.4941 16.9395C25.9303 17.6751 26.1973 18.5182 26.2949 19.4688H23.8535C23.7884 18.8568 23.6452 18.3327 23.4238 17.8965C23.209 17.4603 22.89 17.1283 22.4668 16.9004C22.0436 16.666 21.4902 16.5488 20.8066 16.5488C20.2467 16.5488 19.7585 16.653 19.3418 16.8613C18.9251 17.0697 18.5768 17.3757 18.2969 17.7793C18.0169 18.1829 17.8053 18.681 17.6621 19.2734C17.5254 19.8594 17.457 20.5299 17.457 21.2852V22.4863C17.457 23.2025 17.5189 23.8535 17.6426 24.4395C17.7728 25.0189 17.9681 25.5169 18.2285 25.9336C18.4954 26.3503 18.834 26.6725 19.2441 26.9004C19.6543 27.1283 20.1458 27.2422 20.7188 27.2422C21.4154 27.2422 21.9785 27.1315 22.4082 26.9102C22.8444 26.6888 23.1732 26.3665 23.3945 25.9434C23.6224 25.5137 23.7721 24.9896 23.8438 24.3711Z" fill="#343434"/>
<rect x="1" y="1" width="41" height="41" rx="20.5" stroke="#E3E3E3"/>
</svg>
