<svg width="17" height="17" viewBox="0 0 17 17" fill="none" xmlns="http://www.w3.org/2000/svg">
<path d="M12.1011 2.95733L14.0426 4.89791L12.1011 2.95733ZM13.3496 1.24774L8.09984 6.49749C7.82858 6.76837 7.64359 7.11348 7.56817 7.48933L7.08325 9.91666L9.51059 9.43083C9.88642 9.35566 10.2311 9.17141 10.5024 8.90008L15.7522 3.65033C15.9099 3.49257 16.0351 3.30529 16.1204 3.09917C16.2058 2.89305 16.2498 2.67214 16.2498 2.44904C16.2498 2.22594 16.2058 2.00502 16.1204 1.7989C16.0351 1.59278 15.9099 1.4055 15.7522 1.24774C15.5944 1.08999 15.4071 0.964849 15.201 0.879472C14.9949 0.794095 14.774 0.750153 14.5509 0.750153C14.3278 0.750153 14.1069 0.794095 13.9007 0.879472C13.6946 0.964849 13.5073 1.08999 13.3496 1.24774V1.24774Z" stroke="#5B5B5B" stroke-linecap="round" stroke-linejoin="round"/>
<path d="M14.4166 11.75V14.5C14.4166 14.9862 14.2235 15.4525 13.8797 15.7963C13.5358 16.1402 13.0695 16.3333 12.5833 16.3333H2.49996C2.01373 16.3333 1.54741 16.1402 1.2036 15.7963C0.85978 15.4525 0.666626 14.9862 0.666626 14.5V4.41665C0.666626 3.93042 0.85978 3.4641 1.2036 3.12028C1.54741 2.77647 2.01373 2.58331 2.49996 2.58331H5.24996" stroke="#5B5B5B" stroke-linecap="round" stroke-linejoin="round"/>
</svg>
