<svg width="17" height="19" viewBox="0 0 17 19" fill="none" xmlns="http://www.w3.org/2000/svg">
<path d="M6.99999 19C8.10374 19 8.99905 18.1047 8.99905 17H5.00093C5.00093 18.1047 5.89624 19 6.99999 19ZM13.7309 14.3216C13.1272 13.6728 11.9975 12.6969 11.9975 9.5C11.9975 7.07188 10.295 5.12813 7.99937 4.65125V4C7.99937 3.44781 7.55187 3 6.99999 3C6.44812 3 6.00062 3.44781 6.00062 4V4.65125C3.70499 5.12813 2.00249 7.07188 2.00249 9.5C2.00249 12.6969 0.872804 13.6728 0.269054 14.3216C0.0815536 14.5231 -0.00157141 14.7641 -8.9117e-06 15C0.00342859 15.5125 0.405616 16 1.00312 16H12.9969C13.5944 16 13.9969 15.5125 14 15C14.0016 14.7641 13.9184 14.5228 13.7309 14.3216V14.3216Z" fill="#C5C7CD"/>
<circle cx="12" cy="5" r="3.75" fill="#3751FF" stroke="#F7F8FC" stroke-width="1.5"/>
</svg>
