<svg width="18" height="18" viewBox="0 0 18 18" fill="none" xmlns="http://www.w3.org/2000/svg">
<path d="M9 11.5C9.66304 11.5 10.2989 11.2366 10.7678 10.7678C11.2366 10.2989 11.5 9.66304 11.5 9C11.5 8.33696 11.2366 7.70107 10.7678 7.23223C10.2989 6.76339 9.66304 6.5 9 6.5C8.33696 6.5 7.70107 6.76339 7.23223 7.23223C6.76339 7.70107 6.5 8.33696 6.5 9C6.5 9.66304 6.76339 10.2989 7.23223 10.7678C7.70107 11.2366 8.33696 11.5 9 11.5V11.5Z" fill="#DC0909"/>
<path fill-rule="evenodd" clip-rule="evenodd" d="M9.75003 0.250012C11.75 0.375012 13.625 1.37501 15 2.75001C16.625 4.50001 17.5 6.62501 17.5 9.12501C17.5 11.125 16.75 13 15.5 14.625C14.25 16.125 12.5 17.25 10.5 17.625C8.50003 18 6.50003 17.75 4.75003 16.75C3.00003 15.75 1.62503 14.25 0.875027 12.375C0.125027 10.5 2.73287e-05 8.37501 0.625027 6.50001C1.25003 4.50001 2.37503 2.87501 4.12503 1.75001C5.75003 0.625012 7.75003 0.125012 9.75003 0.250012ZM10.375 16.375C12 16 13.5 15.125 14.625 13.75C15.625 12.375 16.25 10.75 16.125 9.00001C16.125 7.00001 15.375 5.00001 14 3.62501C12.75 2.37501 11.25 1.62501 9.50003 1.50001C7.87503 1.37501 6.12503 1.75001 4.75003 2.75001C3.37503 3.75001 2.37503 5.12501 1.87503 6.87501C1.37503 8.50001 1.37503 10.25 2.12503 11.875C2.87503 13.5 4.00003 14.75 5.50003 15.625C7.00003 16.5 8.75003 16.75 10.375 16.375V16.375Z" fill="#DC0909"/>
</svg>
