<svg width="14" height="14" viewBox="0 0 14 14" fill="none" xmlns="http://www.w3.org/2000/svg">
<path d="M7 13.2223C5.76936 13.2223 4.56635 12.8574 3.54311 12.1736C2.51988 11.4899 1.72236 10.5182 1.25141 9.3812C0.780467 8.24424 0.657246 6.99316 0.897332 5.78616C1.13742 4.57917 1.73003 3.47047 2.60022 2.60028C3.47041 1.73009 4.57911 1.13748 5.7861 0.897393C6.99309 0.657307 8.24417 0.780528 9.38114 1.25147C10.5181 1.72242 11.4899 2.51994 12.1736 3.54318C12.8573 4.56641 13.2222 5.76942 13.2222 7.00006C13.2222 8.65029 12.5667 10.2329 11.3998 11.3998C10.2329 12.5667 8.65023 13.2223 7 13.2223ZM7 1.55561C5.92319 1.55561 4.87056 1.87492 3.97522 2.47317C3.07989 3.07141 2.38206 3.92172 1.96999 4.91656C1.55791 5.9114 1.45009 7.0061 1.66017 8.06222C1.87024 9.11833 2.38877 10.0884 3.15019 10.8499C3.91161 11.6113 4.88172 12.1298 5.93784 12.3399C6.99396 12.55 8.08865 12.4421 9.0835 12.0301C10.0783 11.618 10.9286 10.9202 11.5269 10.0248C12.1251 9.12949 12.4444 8.07687 12.4444 7.00006C12.4444 5.5561 11.8708 4.17128 10.8498 3.15025C9.82877 2.12922 8.44395 1.55561 7 1.55561Z" fill="#DC0909"/>
</svg>
