<svg width="6" height="6" viewBox="0 0 6 6" fill="none" xmlns="http://www.w3.org/2000/svg">
<path d="M3.62611 2.99997L5.51611 1.10997C5.57982 1.03557 5.61311 0.939876 5.60933 0.842002C5.60555 0.744128 5.56498 0.651285 5.49572 0.582026C5.42646 0.512767 5.33362 0.472193 5.23574 0.468413C5.13787 0.464632 5.04217 0.497923 4.96778 0.561634L3.07778 2.43219L1.17611 0.530523C1.10171 0.466812 1.00602 0.433521 0.908144 0.437302C0.81027 0.441082 0.717427 0.481656 0.648168 0.550915C0.578909 0.620174 0.538335 0.713017 0.534555 0.810891C0.530775 0.908765 0.564066 1.00446 0.627776 1.07886L2.52555 2.99997L0.666665 4.83552C0.625955 4.87039 0.592892 4.91329 0.56955 4.96153C0.546207 5.00978 0.53309 5.06233 0.531021 5.11589C0.528952 5.16945 0.537977 5.22285 0.557528 5.27276C0.577079 5.32266 0.606735 5.36799 0.644634 5.40589C0.682533 5.44379 0.727857 5.47344 0.777762 5.49299C0.827666 5.51254 0.881073 5.52157 0.93463 5.5195C0.988188 5.51743 1.04074 5.50431 1.08899 5.48097C1.13723 5.45763 1.18014 5.42456 1.215 5.38386L3.07 3.52886L4.91333 5.37219C4.98773 5.4359 5.08342 5.46919 5.1813 5.46541C5.27917 5.46163 5.37201 5.42106 5.44127 5.3518C5.51053 5.28254 5.55111 5.18969 5.55489 5.09182C5.55867 4.99395 5.52537 4.89825 5.46166 4.82386L3.62611 2.99997Z" fill="#DC0909"/>
</svg>
