<svg width="16" height="12" viewBox="0 0 16 12" fill="none" xmlns="http://www.w3.org/2000/svg">
<path d="M8 0.5C13 0.5 16 6 16 6C16 6 13 11.5 8 11.5C3 11.5 0 6 0 6C0 6 3 0.5 8 0.5ZM8 1.5C4.48 1.5 1.998 4.751 1.175 6C1.997 7.248 4.479 10.5 8 10.5C11.52 10.5 14.002 7.249 14.825 6C14.003 4.752 11.521 1.5 8 1.5ZM8 2.5C8.92826 2.5 9.8185 2.86875 10.4749 3.52513C11.1313 4.1815 11.5 5.07174 11.5 6C11.5 6.92826 11.1313 7.8185 10.4749 8.47487C9.8185 9.13125 8.92826 9.5 8 9.5C7.07174 9.5 6.1815 9.13125 5.52513 8.47487C4.86875 7.8185 4.5 6.92826 4.5 6C4.5 5.07174 4.86875 4.1815 5.52513 3.52513C6.1815 2.86875 7.07174 2.5 8 2.5ZM8 3.5C7.3372 3.50079 6.70178 3.76444 6.23311 4.23311C5.76444 4.70178 5.50079 5.3372 5.5 6C5.5 7.378 6.621 8.5 8 8.5C9.379 8.5 10.5 7.378 10.5 6C10.5 4.622 9.379 3.5 8 3.5Z" fill="#1649DA"/>
</svg>
