<svg width="44" height="44" viewBox="0 0 44 44" fill="none" xmlns="http://www.w3.org/2000/svg">
<rect width="44" height="44" rx="22" fill="#1649DA"/>
<path d="M18.248 28V26.48L21.992 22.576C22.4613 22.0853 22.808 21.632 23.032 21.216C23.256 20.8 23.368 20.3733 23.368 19.936C23.368 19.392 23.1973 18.9813 22.856 18.704C22.5147 18.4267 22.0187 18.288 21.368 18.288C20.8453 18.288 20.344 18.384 19.864 18.576C19.384 18.7573 18.9147 19.0453 18.456 19.44L17.784 17.904C18.2427 17.4987 18.808 17.1733 19.48 16.928C20.1627 16.6827 20.8773 16.56 21.624 16.56C22.84 16.56 23.7733 16.832 24.424 17.376C25.0747 17.92 25.4 18.6987 25.4 19.712C25.4 20.416 25.2347 21.088 24.904 21.728C24.5733 22.3573 24.0613 23.0187 23.368 23.712L20.248 26.832V26.288H25.848V28H18.248Z" fill="white"/>
</svg>
