<svg width="44" height="44" viewBox="0 0 44 44" fill="none" xmlns="http://www.w3.org/2000/svg">
<rect width="44" height="44" rx="22" fill="#1649DA"/>
<path d="M21.624 28.16C20.8453 28.16 20.0987 28.048 19.384 27.824C18.6693 27.5893 18.0827 27.2693 17.624 26.864L18.296 25.312C18.7973 25.696 19.3147 25.9787 19.848 26.16C20.392 26.3413 20.9627 26.432 21.56 26.432C22.2853 26.432 22.8347 26.288 23.208 26C23.5813 25.712 23.768 25.2907 23.768 24.736C23.768 24.2027 23.5813 23.8027 23.208 23.536C22.8453 23.2587 22.312 23.12 21.608 23.12H19.784V21.472H21.432C22.04 21.472 22.5253 21.3227 22.888 21.024C23.2507 20.7253 23.432 20.3147 23.432 19.792C23.432 19.3013 23.2613 18.928 22.92 18.672C22.5893 18.416 22.1093 18.288 21.48 18.288C20.3493 18.288 19.352 18.672 18.488 19.44L17.816 17.904C18.2747 17.4773 18.84 17.1467 19.512 16.912C20.1947 16.6773 20.9093 16.56 21.656 16.56C22.8293 16.56 23.7467 16.8267 24.408 17.36C25.08 17.8827 25.416 18.6133 25.416 19.552C25.416 20.224 25.224 20.8053 24.84 21.296C24.4667 21.776 23.9493 22.096 23.288 22.256V22.064C24.0667 22.192 24.6693 22.512 25.096 23.024C25.5333 23.5253 25.752 24.1547 25.752 24.912C25.752 25.9147 25.384 26.7093 24.648 27.296C23.912 27.872 22.904 28.16 21.624 28.16Z" fill="white"/>
</svg>
